<svg width="1200" height="1332" xmlns="http://www.w3.org/2000/svg">
    <defs>
        <style>
            .background { fill: #1a1a1a; }
            .title { font-family: Arial, sans-serif; font-size: 52px; font-weight: normal; letter-spacing: 8px; word-spacing: 20px; }
            .title-orange { fill: #FF6600; }
            .title-white { fill: #FFFFFF; }
            .section-title { font-family: Arial, sans-serif; font-size: 20px; font-weight: bold; fill: #FFFFFF; }
            .field-name { font-family: Consolas, Monaco, monospace; font-size: 13px; fill: #FFD700; }
            .field-value { font-family: Consolas, Monaco, monospace; font-size: 13px; fill: #FFFFFF; }
            .field-label { font-family: Consolas, Monaco, monospace; font-size: 11px; fill: #999; text-transform: uppercase; letter-spacing: 1px; }
            .hex-text { font-family: Consolas, Monaco, monospace; font-size: 13px; font-weight: 500; fill: #FFFFFF; }
            .hex-offset { font-family: Consolas, Monaco, monospace; font-size: 12px; fill: #888; font-weight: bold; }
            .ascii-text { font-family: Consolas, Monaco, monospace; font-size: 11px; font-weight: 500; }
            .connector-line { stroke-width: 2; fill: none; opacity: 0.8; }
            .section-box { stroke: #444; stroke-width: 1.5; }
            .hex-box { fill: #2a2a2a; stroke: #444; stroke-width: 2; }
            .hex-highlight { opacity: 1; }
            .copyright { font-family: Arial, sans-serif; font-size: 11px; fill: #666; }
            .description { font-family: Georgia, serif; font-size: 15px; fill: #CCC; line-height: 1.6; }
        </style>
        <filter id="glow">
            <feGaussianBlur stdDeviation="3" result="coloredBlur"/>
            <feMerge>
                <feMergeNode in="coloredBlur"/>
                <feMergeNode in="SourceGraphic"/>
            </feMerge>
        </filter>
    </defs>
    <rect width="1200" height="1332" class="background"/><text x="60" y="70" class="title"><tspan class="title-orange">BINTERATIVIEW-TUI</tspan></text><rect x="60" y="140" width="650" height="182" class="hex-box"/><rect x="127" y="160" width="152" height="18" fill="#FF6B6B" opacity="0.3"/><rect x="549" y="160" width="58" height="18" fill="#FF6B6B" opacity="0.3"/><rect x="283" y="160" width="178" height="18" fill="#4ECDC4" opacity="0.3"/><rect x="609" y="160" width="68" height="18" fill="#4ECDC4" opacity="0.3"/><rect x="465" y="160" width="74" height="18" fill="#95E1D3" opacity="0.3"/><rect x="679" y="160" width="28" height="18" fill="#95E1D3" opacity="0.3"/><rect x="127" y="182" width="412" height="18" fill="#95E1D3" opacity="0.3"/><rect x="549" y="182" width="158" height="18" fill="#95E1D3" opacity="0.3"/><rect x="127" y="204" width="126" height="18" fill="#95E1D3" opacity="0.3"/><rect x="549" y="204" width="48" height="18" fill="#95E1D3" opacity="0.3"/><rect x="257" y="204" width="256" height="18" fill="#F38181" opacity="0.3"/><rect x="599" y="204" width="98" height="18" fill="#F38181" opacity="0.3"/><text x="75" y="175" class="hex-offset">00:</text><text x="130" y="175" class="hex-text">47</text><text x="156" y="175" class="hex-text">49</text><text x="182" y="175" class="hex-text">46</text><text x="208" y="175" class="hex-text">38</text><text x="234" y="175" class="hex-text">39</text><text x="260" y="175" class="hex-text">61</text><text x="286" y="175" class="hex-text">3A</text><text x="312" y="175" class="hex-text">07</text><text x="338" y="175" class="hex-text">DB</text><text x="364" y="175" class="hex-text">04</text><text x="390" y="175" class="hex-text">F7</text><text x="416" y="175" class="hex-text">FF</text><text x="442" y="175" class="hex-text">00</text><text x="468" y="175" class="hex-text">01</text><text x="494" y="175" class="hex-text">79</text><text x="520" y="175" class="hex-text">D4</text><text x="550" y="175" class="ascii-text" fill="#FF6B6B">G</text><text x="560" y="175" class="ascii-text" fill="#FF6B6B">I</text><text x="570" y="175" class="ascii-text" fill="#FF6B6B">F</text><text x="580" y="175" class="ascii-text" fill="#FF6B6B">8</text><text x="590" y="175" class="ascii-text" fill="#FF6B6B">9</text><text x="600" y="175" class="ascii-text" fill="#FF6B6B">a</text><text x="610" y="175" class="ascii-text" fill="#4ECDC4">:</text><text x="620" y="175" class="ascii-text" fill="#4ECDC4">·</text><text x="630" y="175" class="ascii-text" fill="#4ECDC4">·</text><text x="640" y="175" class="ascii-text" fill="#4ECDC4">·</text><text x="650" y="175" class="ascii-text" fill="#4ECDC4">·</text><text x="660" y="175" class="ascii-text" fill="#4ECDC4">·</text><text x="670" y="175" class="ascii-text" fill="#4ECDC4">·</text><text x="680" y="175" class="ascii-text" fill="#95E1D3">·</text><text x="690" y="175" class="ascii-text" fill="#95E1D3">y</text><text x="700" y="175" class="ascii-text" fill="#95E1D3">·</text><text x="75" y="197" class="hex-offset">10:</text><text x="130" y="197" class="hex-text">0D</text><text x="156" y="197" class="hex-text">81</text><text x="182" y="197" class="hex-text">38</text><text x="208" y="197" class="hex-text">11</text><text x="234" y="197" class="hex-text">11</text><text x="260" y="197" class="hex-text">11</text><text x="286" y="197" class="hex-text">16</text><text x="312" y="197" class="hex-text">14</text><text x="338" y="197" class="hex-text">20</text><text x="364" y="197" class="hex-text">18</text><text x="390" y="197" class="hex-text">18</text><text x="416" y="197" class="hex-text">18</text><text x="442" y="197" class="hex-text">1B</text><text x="468" y="197" class="hex-text">10</text><text x="494" y="197" class="hex-text">00</text><text x="520" y="197" class="hex-text">1E</text><text x="550" y="197" class="ascii-text" fill="#95E1D3">·</text><text x="560" y="197" class="ascii-text" fill="#95E1D3">·</text><text x="570" y="197" class="ascii-text" fill="#95E1D3">8</text><text x="580" y="197" class="ascii-text" fill="#95E1D3">·</text><text x="590" y="197" class="ascii-text" fill="#95E1D3">·</text><text x="600" y="197" class="ascii-text" fill="#95E1D3">·</text><text x="610" y="197" class="ascii-text" fill="#95E1D3">·</text><text x="620" y="197" class="ascii-text" fill="#95E1D3">·</text><text x="630" y="197" class="ascii-text" fill="#95E1D3"> </text><text x="640" y="197" class="ascii-text" fill="#95E1D3">·</text><text x="650" y="197" class="ascii-text" fill="#95E1D3">·</text><text x="660" y="197" class="ascii-text" fill="#95E1D3">·</text><text x="670" y="197" class="ascii-text" fill="#95E1D3">·</text><text x="680" y="197" class="ascii-text" fill="#95E1D3">·</text><text x="690" y="197" class="ascii-text" fill="#95E1D3">·</text><text x="700" y="197" class="ascii-text" fill="#95E1D3">·</text><text x="75" y="219" class="hex-offset">20:</text><text x="130" y="219" class="hex-text">13</text><text x="156" y="219" class="hex-text">00</text><text x="182" y="219" class="hex-text">1E</text><text x="208" y="219" class="hex-text">1E</text><text x="234" y="219" class="hex-text">1E</text><text x="260" y="219" class="hex-text">1E</text><text x="286" y="219" class="hex-text">1F</text><text x="312" y="219" class="hex-text">28</text><text x="338" y="219" class="hex-text">1E</text><text x="364" y="219" class="hex-text">22</text><text x="390" y="219" class="hex-text">1F</text><text x="416" y="219" class="hex-text">1E</text><text x="442" y="219" class="hex-text">2A</text><text x="468" y="219" class="hex-text">1F</text><text x="494" y="219" class="hex-text">1F</text><text x="520" y="219" class="hex-text">33</text><text x="550" y="219" class="ascii-text" fill="#95E1D3">·</text><text x="560" y="219" class="ascii-text" fill="#95E1D3">·</text><text x="570" y="219" class="ascii-text" fill="#95E1D3">·</text><text x="580" y="219" class="ascii-text" fill="#95E1D3">·</text><text x="590" y="219" class="ascii-text" fill="#95E1D3">·</text><text x="600" y="219" class="ascii-text" fill="#F38181">·</text><text x="610" y="219" class="ascii-text" fill="#F38181">·</text><text x="620" y="219" class="ascii-text" fill="#F38181">(</text><text x="630" y="219" class="ascii-text" fill="#F38181">·</text><text x="640" y="219" class="ascii-text" fill="#F38181">&quot;</text><text x="650" y="219" class="ascii-text" fill="#F38181">·</text><text x="660" y="219" class="ascii-text" fill="#F38181">·</text><text x="670" y="219" class="ascii-text" fill="#F38181">*</text><text x="680" y="219" class="ascii-text" fill="#F38181">·</text><text x="690" y="219" class="ascii-text" fill="#F38181">·</text><text x="700" y="219" class="ascii-text" fill="#666">3</text><text x="75" y="241" class="hex-offset">30:</text><text x="130" y="241" class="hex-text">20</text><text x="156" y="241" class="hex-text">20</text><text x="182" y="241" class="hex-text">1D</text><text x="208" y="241" class="hex-text">1E</text><text x="234" y="241" class="hex-text">20</text><text x="260" y="241" class="hex-text">25</text><text x="286" y="241" class="hex-text">5A</text><text x="312" y="241" class="hex-text">21</text><text x="338" y="241" class="hex-text">1F</text><text x="364" y="241" class="hex-text">1F</text><text x="390" y="241" class="hex-text">21</text><text x="416" y="241" class="hex-text">3C</text><text x="442" y="241" class="hex-text">21</text><text x="468" y="241" class="hex-text">21</text><text x="494" y="241" class="hex-text">4B</text><text x="520" y="241" class="hex-text">21</text><text x="550" y="241" class="ascii-text" fill="#666"> </text><text x="560" y="241" class="ascii-text" fill="#666"> </text><text x="570" y="241" class="ascii-text" fill="#666">·</text><text x="580" y="241" class="ascii-text" fill="#666">·</text><text x="590" y="241" class="ascii-text" fill="#666"> </text><text x="600" y="241" class="ascii-text" fill="#666">%</text><text x="610" y="241" class="ascii-text" fill="#666">Z</text><text x="620" y="241" class="ascii-text" fill="#666">!</text><text x="630" y="241" class="ascii-text" fill="#666">·</text><text x="640" y="241" class="ascii-text" fill="#666">·</text><text x="650" y="241" class="ascii-text" fill="#666">!</text><text x="660" y="241" class="ascii-text" fill="#666">&lt;</text><text x="670" y="241" class="ascii-text" fill="#666">!</text><text x="680" y="241" class="ascii-text" fill="#666">!</text><text x="690" y="241" class="ascii-text" fill="#666">K</text><text x="700" y="241" class="ascii-text" fill="#666">!</text><text x="75" y="263" class="hex-offset">40:</text><text x="130" y="263" class="hex-text">22</text><text x="156" y="263" class="hex-text">22</text><text x="182" y="263" class="hex-text">22</text><text x="208" y="263" class="hex-text">22</text><text x="234" y="263" class="hex-text">42</text><text x="260" y="263" class="hex-text">21</text><text x="286" y="263" class="hex-text">22</text><text x="312" y="263" class="hex-text">55</text><text x="338" y="263" class="hex-text">22</text><text x="364" y="263" class="hex-text">23</text><text x="390" y="263" class="hex-text">21</text><text x="416" y="263" class="hex-text">46</text><text x="442" y="263" class="hex-text">23</text><text x="468" y="263" class="hex-text">26</text><text x="494" y="263" class="hex-text">1F</text><text x="520" y="263" class="hex-text">23</text><text x="550" y="263" class="ascii-text" fill="#666">&quot;</text><text x="560" y="263" class="ascii-text" fill="#666">&quot;</text><text x="570" y="263" class="ascii-text" fill="#666">&quot;</text><text x="580" y="263" class="ascii-text" fill="#666">&quot;</text><text x="590" y="263" class="ascii-text" fill="#666">B</text><text x="600" y="263" class="ascii-text" fill="#666">!</text><text x="610" y="263" class="ascii-text" fill="#666">&quot;</text><text x="620" y="263" class="ascii-text" fill="#666">U</text><text x="630" y="263" class="ascii-text" fill="#666">&quot;</text><text x="640" y="263" class="ascii-text" fill="#666">#</text><text x="650" y="263" class="ascii-text" fill="#666">!</text><text x="660" y="263" class="ascii-text" fill="#666">F</text><text x="670" y="263" class="ascii-text" fill="#666">#</text><text x="680" y="263" class="ascii-text" fill="#666">&amp;</text><text x="690" y="263" class="ascii-text" fill="#666">·</text><text x="700" y="263" class="ascii-text" fill="#666">#</text><text x="75" y="285" class="hex-offset">50:</text><text x="130" y="285" class="hex-text">27</text><text x="156" y="285" class="hex-text">37</text><text x="182" y="285" class="hex-text">23</text><text x="208" y="285" class="hex-text">30</text><text x="234" y="285" class="hex-text">68</text><text x="260" y="285" class="hex-text">23</text><text x="286" y="285" class="hex-text">3A</text><text x="312" y="285" class="hex-text">1E</text><text x="338" y="285" class="hex-text">23</text><text x="364" y="285" class="hex-text">4A</text><text x="390" y="285" class="hex-text">91</text><text x="416" y="285" class="hex-text">23</text><text x="442" y="285" class="hex-text">50</text><text x="468" y="285" class="hex-text">21</text><text x="494" y="285" class="hex-text">24</text><text x="520" y="285" class="hex-text">2A</text><text x="550" y="285" class="ascii-text" fill="#666">&#x27;</text><text x="560" y="285" class="ascii-text" fill="#666">7</text><text x="570" y="285" class="ascii-text" fill="#666">#</text><text x="580" y="285" class="ascii-text" fill="#666">0</text><text x="590" y="285" class="ascii-text" fill="#666">h</text><text x="600" y="285" class="ascii-text" fill="#666">#</text><text x="610" y="285" class="ascii-text" fill="#666">:</text><text x="620" y="285" class="ascii-text" fill="#666">·</text><text x="630" y="285" class="ascii-text" fill="#666">#</text><text x="640" y="285" class="ascii-text" fill="#666">J</text><text x="650" y="285" class="ascii-text" fill="#666">·</text><text x="660" y="285" class="ascii-text" fill="#666">#</text><text x="670" y="285" class="ascii-text" fill="#666">P</text><text x="680" y="285" class="ascii-text" fill="#666">!</text><text x="690" y="285" class="ascii-text" fill="#666">$</text><text x="700" y="285" class="ascii-text" fill="#666">*</text><rect x="790" y="140" width="400" height="160" rx="4" fill="#FF6B6B" opacity="0.15" stroke="#FF6B6B" class="section-box"/><rect x="790" y="140" width="400" height="35" rx="4" fill="#FF6B6B" opacity="0.3"/><text x="805" y="165" class="section-title" filter="url(#glow)">HEADER</text><path d="M 710 180 
                          C 750.0 180, 750.0 220, 
                          790 220" 
                          class="connector-line" stroke="#FF6B6B"/><text x="940" y="185" text-anchor="end" class="field-label">Fields</text><text x="970" y="185" class="field-label">Values</text><line x1="805" y1="190" x2="1175" y2="190" stroke="#FF6B6B" stroke-width="1" opacity="0.3"/><text x="935" y="205" text-anchor="end" class="field-name">header</text><text x="970" y="205" class="field-value">[3 fields]</text><text x="935" y="225" text-anchor="end" class="field-name">signature</text><text x="970" y="225" class="field-value">[5 fields]</text><text x="935" y="245" text-anchor="end" class="field-name">value</text><text x="970" y="245" class="field-value">47 49 46</text><text x="935" y="265" text-anchor="end" class="field-name">version</text><text x="970" y="265" class="field-value">[5 fields]</text><text x="935" y="285" text-anchor="end" class="field-name">value</text><text x="970" y="285" class="field-value">38 39 61</text><rect x="790" y="320" width="400" height="292" rx="4" fill="#4ECDC4" opacity="0.15" stroke="#4ECDC4" class="section-box"/><rect x="790" y="320" width="400" height="35" rx="4" fill="#4ECDC4" opacity="0.3"/><text x="805" y="345" class="section-title" filter="url(#glow)">LOGICAL SCREEN</text><path d="M 710 210 
                          C 750.0 210, 750.0 466, 
                          790 466" 
                          class="connector-line" stroke="#4ECDC4"/><text x="940" y="365" text-anchor="end" class="field-label">Fields</text><text x="970" y="365" class="field-label">Values</text><line x1="805" y1="370" x2="1175" y2="370" stroke="#4ECDC4" stroke-width="1" opacity="0.3"/><text x="935" y="385" text-anchor="end" class="field-name">logical_screen</text><text x="970" y="385" class="field-value">[6 fields]</text><text x="935" y="405" text-anchor="end" class="field-name">width</text><text x="970" y="405" class="field-value">[5 fields]</text><text x="935" y="425" text-anchor="end" class="field-name">value</text><text x="970" y="425" class="field-value">1850 (0x073A)</text><text x="935" y="445" text-anchor="end" class="field-name">height</text><text x="970" y="445" class="field-value">[5 fields]</text><text x="935" y="465" text-anchor="end" class="field-name">value</text><text x="970" y="465" class="field-value">1243 (0x04DB)</text><text x="935" y="485" text-anchor="end" class="field-name">flags</text><text x="970" y="485" class="field-value">[5 fields]</text><text x="935" y="505" text-anchor="end" class="field-name">value</text><text x="970" y="505" class="field-value">247</text><text x="935" y="525" text-anchor="end" class="field-name">background</text><text x="970" y="525" class="field-value">[5 fields]</text><text x="935" y="545" text-anchor="end" class="field-name">value</text><text x="970" y="545" class="field-value">255</text><text x="935" y="565" text-anchor="end" class="field-name">aspect</text><text x="970" y="565" class="field-value">[5 fields]</text><text x="935" y="585" text-anchor="end" class="field-name">value</text><text x="970" y="585" class="field-value">0</text><rect x="790" y="632" width="400" height="94" rx="4" fill="#95E1D3" opacity="0.15" stroke="#95E1D3" class="section-box"/><rect x="790" y="632" width="400" height="35" rx="4" fill="#95E1D3" opacity="0.3"/><text x="805" y="657" class="section-title" filter="url(#glow)">GLOBAL COLOR TABLE</text><path d="M 710 240 
                          C 750.0 240, 750.0 679, 
                          790 679" 
                          class="connector-line" stroke="#95E1D3"/><text x="940" y="677" text-anchor="end" class="field-label">Fields</text><text x="970" y="677" class="field-label">Values</text><line x1="805" y1="682" x2="1175" y2="682" stroke="#95E1D3" stroke-width="1" opacity="0.3"/><text x="935" y="697" text-anchor="end" class="field-name">global_color_table</text><text x="970" y="697" class="field-value">[5 fields]</text><text x="935" y="717" text-anchor="end" class="field-name">value</text><text x="970" y="717" class="field-value">01 79 D4 0D 81 38...</text><rect x="790" y="746" width="400" height="336" rx="4" fill="#F38181" opacity="0.15" stroke="#F38181" class="section-box"/><rect x="790" y="746" width="400" height="35" rx="4" fill="#F38181" opacity="0.3"/><text x="805" y="771" class="section-title" filter="url(#glow)">IMAGE</text><path d="M 710 270 
                          C 750.0 270, 750.0 914, 
                          790 914" 
                          class="connector-line" stroke="#F38181"/><text x="940" y="791" text-anchor="end" class="field-label">Fields</text><text x="970" y="791" class="field-label">Values</text><line x1="805" y1="796" x2="1175" y2="796" stroke="#F38181" stroke-width="1" opacity="0.3"/><text x="935" y="811" text-anchor="end" class="field-name">image</text><text x="970" y="811" class="field-value">[7 fields]</text><text x="935" y="831" text-anchor="end" class="field-name">separator</text><text x="970" y="831" class="field-value">[5 fields]</text><text x="935" y="851" text-anchor="end" class="field-name">value</text><text x="970" y="851" class="field-value">30</text><text x="935" y="871" text-anchor="end" class="field-name">left</text><text x="970" y="871" class="field-value">[5 fields]</text><text x="935" y="891" text-anchor="end" class="field-name">value</text><text x="970" y="891" class="field-value">10271 (0x281F)</text><text x="935" y="911" text-anchor="end" class="field-name">top</text><text x="970" y="911" class="field-value">[5 fields]</text><text x="935" y="931" text-anchor="end" class="field-name">value</text><text x="970" y="931" class="field-value">8734 (0x221E)</text><text x="935" y="951" text-anchor="end" class="field-name">width</text><text x="970" y="951" class="field-value">[5 fields]</text><text x="935" y="971" text-anchor="end" class="field-name">value</text><text x="970" y="971" class="field-value">7711 (0x1E1F)</text><text x="935" y="991" text-anchor="end" class="field-name">height</text><text x="970" y="991" class="field-value">[5 fields]</text><text x="935" y="1011" text-anchor="end" class="field-name">value</text><text x="970" y="1011" class="field-value">7978 (0x1F2A)</text><text x="935" y="1031" text-anchor="end" class="field-name">flags</text><text x="970" y="1031" class="field-value">[5 fields]</text><text x="935" y="1051" text-anchor="end" class="field-name">value</text><text x="970" y="1051" class="field-value">31</text><line x1="60" y1="1192" x2="1140" y2="1192" stroke="#444" stroke-width="1"/><text x="60" y="1212" class="description">THE BINTERATIVIEW-TUI STRUCTURE.</text><text x="60" y="1237" class="copyright">Total size: 478391 bytes | 4 sections | 31 fields</text><text x="60" y="1262" class="copyright">Each colored region in the hex dump corresponds to a field in the structure.</text><text x="1140" y="1312" text-anchor="end" class="copyright">Binary Structure Visualization</text></svg>