<svg width="256" height="256" viewBox="0 0 256 256" xmlns="http://www.w3.org/2000/svg">
  <defs>
    <linearGradient id="bgGradient" x1="0%" y1="0%" x2="100%" y2="100%">
      <stop offset="0%" style="stop-color:#1a1a1a;stop-opacity:1" />
      <stop offset="100%" style="stop-color:#2d2d2d;stop-opacity:1" />
    </linearGradient>
    <linearGradient id="accentGradient" x1="0%" y1="0%" x2="100%" y2="100%">
      <stop offset="0%" style="stop-color:#FF6600;stop-opacity:1" />
      <stop offset="100%" style="stop-color:#FF8833;stop-opacity:1" />
    </linearGradient>
    <linearGradient id="matrixGradient" x1="0%" y1="0%" x2="0%" y2="100%">
      <stop offset="0%" style="stop-color:#00FF00;stop-opacity:0" />
      <stop offset="50%" style="stop-color:#00FF00;stop-opacity:0.15" />
      <stop offset="100%" style="stop-color:#00FF00;stop-opacity:0" />
    </linearGradient>
    <filter id="glow">
      <feGaussianBlur stdDeviation="4" result="coloredBlur"/>
      <feMerge>
        <feMergeNode in="coloredBlur"/>
        <feMergeNode in="SourceGraphic"/>
      </feMerge>
    </filter>
    <mask id="roundedMask">
      <rect width="256" height="256" rx="32" fill="white"/>
    </mask>
  </defs>
  
  <!-- Background -->
  <rect width="256" height="256" rx="32" fill="url(#bgGradient)"/>
  
  <!-- Matrix-style hex background -->
  <g mask="url(#roundedMask)" opacity="0.08">
    <!-- Column 1 -->
    <g fill="#00FF00" font-family="JetBrains Mono, monospace" font-size="10">
      <text x="10" y="20">FF</text>
      <text x="10" y="35">A1</text>
      <text x="10" y="50">00</text>
      <text x="10" y="65">E4</text>
      <text x="10" y="80">3B</text>
      <text x="10" y="95">7C</text>
      <text x="10" y="110">01</text>
      <text x="10" y="125">BE</text>
      <text x="10" y="140">42</text>
      <text x="10" y="155">89</text>
      <text x="10" y="170">FA</text>
      <text x="10" y="185">00</text>
      <text x="10" y="200">4D</text>
      <text x="10" y="215">C3</text>
      <text x="10" y="230">5A</text>
      <text x="10" y="245">F0</text>
    </g>
    
    <!-- Column 2 -->
    <g fill="#00FF00" font-family="JetBrains Mono, monospace" font-size="10" opacity="0.7">
      <text x="35" y="15">C0</text>
      <text x="35" y="30">FF</text>
      <text x="35" y="45">2E</text>
      <text x="35" y="60">91</text>
      <text x="35" y="75">00</text>
      <text x="35" y="90">AD</text>
      <text x="35" y="105">53</text>
      <text x="35" y="120">F7</text>
      <text x="35" y="135">08</text>
      <text x="35" y="150">DE</text>
      <text x="35" y="165">AA</text>
      <text x="35" y="180">12</text>
      <text x="35" y="195">6B</text>
      <text x="35" y="210">90</text>
      <text x="35" y="225">CC</text>
      <text x="35" y="240">3F</text>
    </g>
    
    <!-- Column 3 -->
    <g fill="#00FF00" font-family="JetBrains Mono, monospace" font-size="10">
      <text x="60" y="25">7A</text>
      <text x="60" y="40">00</text>
      <text x="60" y="55">B4</text>
      <text x="60" y="70">FF</text>
      <text x="60" y="85">21</text>
      <text x="60" y="100">9C</text>
      <text x="60" y="115">47</text>
      <text x="60" y="130">00</text>
      <text x="60" y="145">E8</text>
      <text x="60" y="160">5D</text>
      <text x="60" y="175">A0</text>
      <text x="60" y="190">13</text>
      <text x="60" y="205">FB</text>
      <text x="60" y="220">77</text>
      <text x="60" y="235">00</text>
    </g>
    
    <!-- Column 4 -->
    <g fill="#00FF00" font-family="JetBrains Mono, monospace" font-size="10" opacity="0.5">
      <text x="85" y="20">8B</text>
      <text x="85" y="35">54</text>
      <text x="85" y="50">00</text>
      <text x="85" y="65">CD</text>
      <text x="85" y="80">AF</text>
      <text x="85" y="95">19</text>
      <text x="85" y="110">72</text>
      <text x="85" y="125">00</text>
      <text x="85" y="140">E5</text>
      <text x="85" y="155">3A</text>
      <text x="85" y="170">B8</text>
      <text x="85" y="185">06</text>
      <text x="85" y="200">9F</text>
      <text x="85" y="215">D1</text>
      <text x="85" y="230">4C</text>
      <text x="85" y="245">00</text>
    </g>
    
    <!-- Column 5 -->
    <g fill="#00FF00" font-family="JetBrains Mono, monospace" font-size="10">
      <text x="110" y="15">00</text>
      <text x="110" y="30">69</text>
      <text x="110" y="45">F2</text>
      <text x="110" y="60">34</text>
      <text x="110" y="75">BB</text>
      <text x="110" y="90">00</text>
      <text x="110" y="105">87</text>
      <text x="110" y="120">4E</text>
      <text x="110" y="135">C9</text>
      <text x="110" y="150">00</text>
      <text x="110" y="165">A5</text>
      <text x="110" y="180">1D</text>
      <text x="110" y="195">F0</text>
      <text x="110" y="210">5B</text>
      <text x="110" y="225">93</text>
      <text x="110" y="240">00</text>
    </g>
    
    <!-- Column 6 -->
    <g fill="#00FF00" font-family="JetBrains Mono, monospace" font-size="10" opacity="0.6">
      <text x="135" y="25">D4</text>
      <text x="135" y="40">00</text>
      <text x="135" y="55">7F</text>
      <text x="135" y="70">A8</text>
      <text x="135" y="85">2C</text>
      <text x="135" y="100">E1</text>
      <text x="135" y="115">00</text>
      <text x="135" y="130">59</text>
      <text x="135" y="145">B6</text>
      <text x="135" y="160">03</text>
      <text x="135" y="175">FE</text>
      <text x="135" y="190">00</text>
      <text x="135" y="205">8A</text>
      <text x="135" y="220">C7</text>
      <text x="135" y="235">45</text>
    </g>
    
    <!-- Column 7 -->
    <g fill="#00FF00" font-family="JetBrains Mono, monospace" font-size="10">
      <text x="160" y="20">FF</text>
      <text x="160" y="35">6E</text>
      <text x="160" y="50">00</text>
      <text x="160" y="65">B1</text>
      <text x="160" y="80">3D</text>
      <text x="160" y="95">C4</text>
      <text x="160" y="110">00</text>
      <text x="160" y="125">85</text>
      <text x="160" y="140">F9</text>
      <text x="160" y="155">22</text>
      <text x="160" y="170">00</text>
      <text x="160" y="185">AB</text>
      <text x="160" y="200">57</text>
      <text x="160" y="215">DC</text>
      <text x="160" y="230">00</text>
      <text x="160" y="245">70</text>
    </g>
    
    <!-- Column 8 -->
    <g fill="#00FF00" font-family="JetBrains Mono, monospace" font-size="10" opacity="0.4">
      <text x="185" y="15">44</text>
      <text x="185" y="30">00</text>
      <text x="185" y="45">BA</text>
      <text x="185" y="60">76</text>
      <text x="185" y="75">E3</text>
      <text x="185" y="90">00</text>
      <text x="185" y="105">28</text>
      <text x="185" y="120">9D</text>
      <text x="185" y="135">51</text>
      <text x="185" y="150">CF</text>
      <text x="185" y="165">00</text>
      <text x="185" y="180">0A</text>
      <text x="185" y="195">F5</text>
      <text x="185" y="210">63</text>
      <text x="185" y="225">B9</text>
      <text x="185" y="240">00</text>
    </g>
    
    <!-- Column 9 -->
    <g fill="#00FF00" font-family="JetBrains Mono, monospace" font-size="10">
      <text x="210" y="25">00</text>
      <text x="210" y="40">88</text>
      <text x="210" y="55">4F</text>
      <text x="210" y="70">D6</text>
      <text x="210" y="85">00</text>
      <text x="210" y="100">2A</text>
      <text x="210" y="115">BC</text>
      <text x="210" y="130">71</text>
      <text x="210" y="145">00</text>
      <text x="210" y="160">E9</text>
      <text x="210" y="175">35</text>
      <text x="210" y="190">A7</text>
      <text x="210" y="205">00</text>
      <text x="210" y="220">1F</text>
      <text x="210" y="235">FC</text>
    </g>
    
    <!-- Column 10 -->
    <g fill="#00FF00" font-family="JetBrains Mono, monospace" font-size="10" opacity="0.3">
      <text x="235" y="20">55</text>
      <text x="235" y="35">00</text>
      <text x="235" y="50">C8</text>
      <text x="235" y="65">9A</text>
      <text x="235" y="80">40</text>
      <text x="235" y="95">ED</text>
      <text x="235" y="110">00</text>
      <text x="235" y="125">16</text>
      <text x="235" y="140">B3</text>
      <text x="235" y="155">7E</text>
      <text x="235" y="170">00</text>
      <text x="235" y="185">D2</text>
      <text x="235" y="200">48</text>
      <text x="235" y="215">AF</text>
      <text x="235" y="230">00</text>
      <text x="235" y="245">61</text>
    </g>
  </g>
  
  <!-- Apply gradient overlay for fade effect -->
  <rect width="256" height="256" rx="32" fill="url(#matrixGradient)" opacity="0.1" mask="url(#roundedMask)"/>
  
  <!-- Border -->
  <rect x="4" y="4" width="248" height="248" rx="28" fill="none" stroke="#444" stroke-width="2" opacity="0.5"/>
  
  <!-- TV Screen Frame -->
  <g transform="translate(128, 115)">
    <!-- Outer TV frame -->
    <rect x="-85" y="-60" width="170" height="120" rx="12" fill="none" stroke="url(#accentGradient)" stroke-width="4" filter="url(#glow)"/>
    
    <!-- Inner screen -->
    <rect x="-75" y="-50" width="150" height="100" rx="8" fill="#1a1a1a" opacity="0.9"/>
    
    <!-- Screen content - structure visualization -->
    <g stroke="#FF6600" stroke-width="2" fill="none" opacity="0.8">
      <!-- Tree structure lines -->
      <line x1="-55" y1="-25" x2="-35" y2="-25"/>
      <line x1="-35" y1="-25" x2="-35" y2="25"/>
      <line x1="-35" y1="-5" x2="-15" y2="-5"/>
      <line x1="-35" y1="10" x2="-15" y2="10"/>
      <line x1="-35" y1="25" x2="-15" y2="25"/>
    </g>
    
    <!-- Structure blocks -->
    <rect x="-15" y="-10" width="65" height="8" rx="2" fill="#4ECDC4" opacity="0.8"/>
    <rect x="-15" y="5" width="45" height="8" rx="2" fill="#95E1D3" opacity="0.8"/>
    <rect x="-15" y="20" width="55" height="8" rx="2" fill="#F38181" opacity="0.8"/>
    
    <!-- Antenna -->
    <line x1="-20" y1="-60" x2="-10" y2="-75" stroke="#666" stroke-width="3" stroke-linecap="round"/>
    <line x1="20" y1="-60" x2="10" y2="-75" stroke="#666" stroke-width="3" stroke-linecap="round"/>
    <circle cx="-10" cy="-75" r="4" fill="#888"/>
    <circle cx="10" cy="-75" r="4" fill="#888"/>
  </g>
  
  <!-- Logo text -->
  <g transform="translate(128, 210)">
    <text text-anchor="middle" font-family="JetBrains Mono, monospace" font-size="36" font-weight="bold" fill="#FFFFFF">
      Bin<tspan fill="#FF6600">TV</tspan>
    </text>
  </g>
  
  <!-- Corner accent -->
  <circle cx="220" cy="36" r="12" fill="#FF6600" opacity="0.2"/>
  <circle cx="220" cy="36" r="6" fill="#FF6600" opacity="0.8"/>
</svg>
